<svg class="lds-gear-set" width="100%" height="100%" xmlns="http://www.w3.org/2000/svg" xmlns:xlink="http://www.w3.org/1999/xlink" viewBox="0 0 100 100" preserveAspectRatio="xMidYMid"><g transform="translate(50 50)"> <g transform="translate(-17 -17) scale(0.5)"> <g transform="rotate(201.867)">
    <animateTransform attributeName="transform" type="rotate" values="0;360" keyTimes="0;1" dur="1.9s" begin="0s" repeatCount="indefinite"></animateTransform><path d="M39.382737335030434 -7 L49.382737335030434 -7 L49.382737335030434 7 L39.382737335030434 7 A40 40 0 0 1 32.79754809959447 22.89805316298281 L32.79754809959447 22.89805316298281 L39.86861591145995 29.969120974848284 L29.969120974848284 39.86861591145995 L22.89805316298281 32.79754809959447 A40 40 0 0 1 7.000000000000006 39.382737335030434 L7.000000000000006 39.382737335030434 L7.000000000000007 49.382737335030434 L-7.000000000000001 49.382737335030434 L-7.000000000000002 39.382737335030434 A40 40 0 0 1 -22.898053162982805 32.79754809959448 L-22.898053162982805 32.79754809959448 L-29.96912097484828 39.868615911459955 L-39.86861591145995 29.969120974848284 L-32.79754809959447 22.89805316298281 A40 40 0 0 1 -39.382737335030434 7.000000000000009 L-39.382737335030434 7.000000000000009 L-49.382737335030434 7.00000000000001 L-49.382737335030434 -6.999999999999999 L-39.382737335030434 -7 A40 40 0 0 1 -32.79754809959448 -22.898053162982798 L-32.79754809959448 -22.898053162982798 L-39.868615911459955 -29.96912097484827 L-29.969120974848305 -39.86861591145994 L-22.898053162982826 -32.797548099594465 A40 40 0 0 1 -6.999999999999994 -39.382737335030434 L-6.999999999999994 -39.382737335030434 L-6.999999999999996 -49.382737335030434 L6.999999999999978 -49.38273733503044 L6.99999999999998 -39.38273733503044 A40 40 0 0 1 22.898053162982812 -32.79754809959447 L22.898053162982812 -32.79754809959447 L29.969120974848288 -39.86861591145995 L39.86861591145993 -29.969120974848302 L32.79754809959446 -22.898053162982826 A40 40 0 0 1 39.382737335030434 -6.9999999999999964 M0 -23A23 23 0 1 0 0 23 A23 23 0 1 0 0 -23" fill="rgba(11.372549019607844%,5.490196078431373%,4.313725490196078%,0.421)"></path></g></g> <g transform="translate(0 22) scale(0.4)"> <g transform="rotate(135.633)">
    <animateTransform attributeName="transform" type="rotate" values="360;0" keyTimes="0;1" dur="1.9s" begin="-0.11875s" repeatCount="indefinite"></animateTransform><path d="M39.382737335030434 -7 L49.382737335030434 -7 L49.382737335030434 7 L39.382737335030434 7 A40 40 0 0 1 32.79754809959447 22.89805316298281 L32.79754809959447 22.89805316298281 L39.86861591145995 29.969120974848284 L29.969120974848284 39.86861591145995 L22.89805316298281 32.79754809959447 A40 40 0 0 1 7.000000000000006 39.382737335030434 L7.000000000000006 39.382737335030434 L7.000000000000007 49.382737335030434 L-7.000000000000001 49.382737335030434 L-7.000000000000002 39.382737335030434 A40 40 0 0 1 -22.898053162982805 32.79754809959448 L-22.898053162982805 32.79754809959448 L-29.96912097484828 39.868615911459955 L-39.86861591145995 29.969120974848284 L-32.79754809959447 22.89805316298281 A40 40 0 0 1 -39.382737335030434 7.000000000000009 L-39.382737335030434 7.000000000000009 L-49.382737335030434 7.00000000000001 L-49.382737335030434 -6.999999999999999 L-39.382737335030434 -7 A40 40 0 0 1 -32.79754809959448 -22.898053162982798 L-32.79754809959448 -22.898053162982798 L-39.868615911459955 -29.96912097484827 L-29.969120974848305 -39.86861591145994 L-22.898053162982826 -32.797548099594465 A40 40 0 0 1 -6.999999999999994 -39.382737335030434 L-6.999999999999994 -39.382737335030434 L-6.999999999999996 -49.382737335030434 L6.999999999999978 -49.38273733503044 L6.99999999999998 -39.38273733503044 A40 40 0 0 1 22.898053162982812 -32.79754809959447 L22.898053162982812 -32.79754809959447 L29.969120974848288 -39.86861591145995 L39.86861591145993 -29.969120974848302 L32.79754809959446 -22.898053162982826 A40 40 0 0 1 39.382737335030434 -6.9999999999999964 M0 -23A23 23 0 1 0 0 23 A23 23 0 1 0 0 -23" fill="rgba(46.666666666666664%,25.098039215686285%,13.725490196078436%,0.488)"></path></g></g> <g transform="translate(28 4) scale(0.3)"> <g transform="rotate(224.367)">
    <animateTransform attributeName="transform" type="rotate" values="0;360" keyTimes="0;1" dur="1.9s" begin="-0.11875s" repeatCount="indefinite"></animateTransform><path d="M39.382737335030434 -7 L49.382737335030434 -7 L49.382737335030434 7 L39.382737335030434 7 A40 40 0 0 1 32.79754809959447 22.89805316298281 L32.79754809959447 22.89805316298281 L39.86861591145995 29.969120974848284 L29.969120974848284 39.86861591145995 L22.89805316298281 32.79754809959447 A40 40 0 0 1 7.000000000000006 39.382737335030434 L7.000000000000006 39.382737335030434 L7.000000000000007 49.382737335030434 L-7.000000000000001 49.382737335030434 L-7.000000000000002 39.382737335030434 A40 40 0 0 1 -22.898053162982805 32.79754809959448 L-22.898053162982805 32.79754809959448 L-29.96912097484828 39.868615911459955 L-39.86861591145995 29.969120974848284 L-32.79754809959447 22.89805316298281 A40 40 0 0 1 -39.382737335030434 7.000000000000009 L-39.382737335030434 7.000000000000009 L-49.382737335030434 7.00000000000001 L-49.382737335030434 -6.999999999999999 L-39.382737335030434 -7 A40 40 0 0 1 -32.79754809959448 -22.898053162982798 L-32.79754809959448 -22.898053162982798 L-39.868615911459955 -29.96912097484827 L-29.969120974848305 -39.86861591145994 L-22.898053162982826 -32.797548099594465 A40 40 0 0 1 -6.999999999999994 -39.382737335030434 L-6.999999999999994 -39.382737335030434 L-6.999999999999996 -49.382737335030434 L6.999999999999978 -49.38273733503044 L6.99999999999998 -39.38273733503044 A40 40 0 0 1 22.898053162982812 -32.79754809959447 L22.898053162982812 -32.79754809959447 L29.969120974848288 -39.86861591145995 L39.86861591145993 -29.969120974848302 L32.79754809959446 -22.898053162982826 A40 40 0 0 1 39.382737335030434 -6.9999999999999964 M0 -23A23 23 0 1 0 0 23 A23 23 0 1 0 0 -23" fill="rgba(84.70588235294116%,54.90196078431372%,31.764705882352935%,0.496)"></path></g></g></g></svg>