<svg version="1.1"
	 id="svg2" sodipodi:docname="Map_啣撣銵svg" inkscape:version="0.47 r22583" xmlns:dc="http://purl.org/dc/elements/1.1/" xmlns:cc="http://creativecommons.org/ns#" xmlns:rdf="http://www.w3.org/1999/02/22-rdf-syntax-ns#" xmlns:svg="http://www.w3.org/2000/svg" xmlns:sodipodi="http://sodipodi.sourceforge.net/DTD/sodipodi-0.dtd" xmlns:inkscape="http://www.inkscape.org/namespaces/inkscape"
	 xmlns="http://www.w3.org/2000/svg" xmlns:xlink="http://www.w3.org/1999/xlink" x="0px" y="0px" width="625px" height="590px"
	 viewBox="0 0 625 590" enable-background="new 0 0 625 590" xml:space="preserve">
<sodipodi:namedview  id="namedview362" inkscape:current-layer="svg2" inkscape:window-y="-4" inkscape:window-x="-4" inkscape:window-height="716" inkscape:window-width="1360" inkscape:pageshadow="2" inkscape:pageopacity="0" inkscape:window-maximized="1" inkscape:cy="297.64001" inkscape:cx="420.94501" inkscape:zoom="0.50732426" showgrid="false" borderopacity="1" bordercolor="#666666" pagecolor="#ffffff" guidetolerance="10" gridtolerance="10" objecttolerance="10">
	</sodipodi:namedview>
<path id="path5" value="土城" stroke-width="0" fill="#E2DEEF" stroke="#6D6E71" stroke-miterlimit="10" d="M175.292,289.968c-2.082,0.57-3.98,1.691-5.882,2.692
	c-0.415,0.157-0.576,0.615-0.641,0.965c-1.234-0.029-2.5,0.306-3.706,0.146c-1.442-0.489-2.853-1.148-4.313-1.538
	c-0.845,0.249-1.672,0.89-2.577,0.482c-1.08-0.206-2.142-0.572-3.224-0.715c-1.456,0.648-3.422,0.833-4.186,2.443
	c-2.948,5.025-5.61,10.223-8.429,15.324c-1.247,0.151-2.494,0.306-3.741,0.457c-0.391-0.563-0.966-1.392-1.567-0.526
	c-1.704,1.271-3.357,2.628-5.09,3.846c-1.683,0.669-3.445,1.154-5.068,1.929c-2.339,4.91-4.61,9.875-6.797,14.865
	c0.637,1.864,1.574,3.65,2.407,5.442c0.404,0.698,1.415,0.62,2.095,0.901c1.609,0.41,3.233,0.789,4.851,1.183
	c0.513,0.905,0.891,2.479,2.186,2.474c2.41-0.443,4.675-1.457,6.992-2.234l4.408,1.867c0.132,0.508,0.085,1.42,0.855,1.334
	c1.373,0.035,2.788,0.127,4.136-0.035c1.575-1.691,3.053-3.465,4.564-5.213c2.652-0.059,5.331,0.035,7.967-0.119
	c4.341-2.598,8.607-5.319,12.806-8.141c2.109-2.795,3.928-5.822,5.895-8.729c0.61-4.188,1.112-8.401,1.677-12.6
	c-0.879-1.608-2.188-2.979-3.251-4.483c-0.935-1.229-1.882-2.453-2.821-3.681c1.231-1.065,2.589-2.037,3.751-3.156
	c-0.034-0.665-0.68-1.233-0.953-1.847c-0.742-1.043-1.146-2.336-2.032-3.264C175.513,289.98,175.399,289.95,175.292,289.968"/>
<path id="path9" value="中和" stroke-width="0" fill="#B9E5FB" stroke="#6D6E71" stroke-miterlimit="10" d="M188.599,272.433c-1.085,0.703-2.052,1.785-3.196,2.289
	c-2.403-0.069-4.833-1.107-7.213-0.947c-2.193,2.587-3.375,5.986-5.754,8.404c-1.323,0.836-3.407,1.42-3.259,3.386
	c-0.122,2.375-0.354,4.825-0.237,7.174c2.265-0.602,4.304-2.516,6.748-2.676c1.042,1.575,2.044,3.334,2.873,5.035
	c-0.922,1.188-2.772,1.996-3.544,3.268c1.831,2.849,4.224,5.317,5.848,8.286c-0.533,4.034-1.066,8.124-1.578,12.13
	c2.582-0.017,5.284-0.25,7.836-0.702c1.494-1.624,2.752-3.646,4.393-5.027c3.646-0.816,7.466-1.174,10.989-2.398
	c1.082-1.382,1.255-3.471,2.541-4.602c2.052-1.299,4.513-2.192,6.251-3.858c0.52-1.238,0.466-2.652,0.986-3.875
	c2.421-0.279,4.852-0.576,7.275-0.868c0.5-1.365,0.004-3.071-0.007-4.569c1.832-0.438,3.977-0.157,5.634-1.089
	c0.069-1.236-1.136-2.328-1.626-3.449c-0.722-1.111-2.259,0.039-3.228,0.104c-2.218,0.798-4.633,0.365-6.872,0.716
	c-1.921,0.979-3.818,2.318-5.777,3.072c-0.625-2.769-0.658-5.736-1.492-8.421c-1.13-0.824-2.998-0.012-3.97-0.724
	c-0.815-2.562-1.457-5.233-2.446-7.705c-2.274,1.354-4.916,1.384-7.489,1.626c-1.669,0.712-1.64-1.85-2.46-2.769
	C189.394,273.747,189.318,272.432,188.599,272.433"/>
<path id="path13" value="瑞芳" stroke-width="0" fill="#E4DFEF" stroke="#6D6E71" stroke-miterlimit="10" d="M454.717,162.593
	c-3.063,0.741-6.798,0.676-9.313,2.684c-0.264,5.895-4.396,10.356-7.917,14.71c-1.564,1.753-2.896,6.447-6.035,4.719
	c-3.513-2.282-7.393-4.176-11.617-4.546c-3.702,3.443-6.306,8.737-11.868,9.17c-2.521,0.617-0.563,3.995-1.025,5.683
	c0.236,4.586,0.263,9.22,0.6,13.779c3.935,4.134,8.938,7.525,12.14,12.137c-0.951,2.681,1.293,2.335,3.467,2.043
	c5.889,0.417,10.819-3.226,16.215-4.631c2.413,4.066,2.719,9.534,6.329,12.769c2.313,1.674,5.748,2.453,7.576,4.451
	c-1.168,3.081-0.608,6.305,1.168,9.075c0.572,2.1,3.087,2.838,4.499,1.058c3.284-3.607,8.666,0.15,12.579-1.847
	c1.543-1.941-1.326-4.267-1.755-6.175c-1.467-2.726-3.548-5.337-2.261-8.569c0.81-3.68-0.179-8.213,3.471-10.528
	c4.411-5.058,9.896-9.366,13.533-14.992c0.179-2.047-0.388-4.447,1.721-5.687c1.852-2.063,4.598,1.206,6.91,1.608
	c4.617,1.708,9.801,2.434,14.649,2.138c1.181-0.686-0.336-2.891,1.69-2.873c4.758-1.419,9.844-2.13,14.457-3.756
	c0.3-5.486,0.321-11.008,0.979-16.463c4.574-0.366,10.348-0.467,13.117-4.734c0.358-1.753,0.201-4.716-2.354-4.215
	c-3.72-0.615-7.26,0.969-9.988,3.204c-5.621,3.067-12.27,4.064-18.517,2.332c-4.329-0.379-8.534-2.724-12.88-1.811
	c-2.734,2.149-5.271-0.643-8.128-0.647c-5.669-0.144-11.4-0.017-16.747-2.179c-3.872-0.9-6.078,3.482-9.075,4.925
	c-2.458,0.683-5.077-0.132-6.124-2.557c-1.655-2.785,0.974-6.095,2.201-8.563C458.326,161.922,456.755,162.33,454.717,162.593"/>
<path id="path15" value="貢寮" stroke-width="0" fill="#FCC7A1" stroke="#6D6E71" stroke-miterlimit="10" d="M530.511,178.108
	c-1.931,0.125-4.087,0.064-5.811,0.836c-0.351,5.412-0.26,11.012-0.93,16.32c-5.021,1.595-10.563,2.162-15.358,4.088
	c0.495,6.303,0.873,12.743,2.228,18.909c2.318,3.137,5.956,5.237,9.502,6.803c-0.123,4.504-0.578,9.081-0.49,13.542
	c1.864,2.093,6.441,2.873,6.221,5.997c0.067,5.809-0.647,11.542-2.89,16.921c-0.961,3.575-0.362,7.332-0.458,10.985
	c-3.167,0.825-7.051,0.1-9.802,1.974c-2.076,7.75-6.354,15.046-12.217,20.565c-4.757,6.268-2.009,15.311-6.521,21.776
	c-2.086,2.553,2.842,2.576,4.405,3.588c2.804,0.518,6.08,1.061,8.731,0.225c6.904-5.386,12.89-12.207,20.632-16.267
	c7.006-2.456,14.949-0.724,21.789-4.112c7.318-2.899,15.146-5.734,23.108-3.884c3.16,0.763,7.086-0.058,8.086-3.546
	c0.883-3.068,5.233-0.299,6.403-3.241c3.091-3.453,8.689-4.079,10.904-8.523c1.9-0.893,5.15,0.132,5.998-2.588
	c1.176-2.858,1.213-6.48-1.529-8.539c-1.225-2.008-3.554-3.564-5.842-2.162c-1.488,0.243-2.834,2.817-3.758,2.253
	c-1.4-2.853-2.83-6.047-6.138-6.957c-3.022-2.95-7.99-4.929-11.996-2.857c-2.982,2.377-6.288,5.394-10.464,4.23
	c-3.474-0.528-7.448,0.12-9.87-2.962c-3.763-3.677-9.438-6.05-11.264-11.243c-1.253-5.817,0.512-12.061-1.279-17.725
	c-1.958-1.856,2.265-2.473,2.778-4.056c-0.768-2.442-3.622-4.118-5.184-6.186c-4.06-3.91-8.021-8.059-9.614-13.66
	c-0.831-2.93,1.588-6,2.124-8.976c0.574-3.069,2.603-5.257,4.924-7.07c2.99-3.06,0.653-7.567-2.336-9.597
	c-1.139-1.039-2.52-2.854-1.231-4.261C533.17,177.654,531.183,178.308,530.511,178.108"/>
<path id="path17" value="雙溪" stroke-width="0" fill="#B9E5FB" stroke="#6D6E71" stroke-miterlimit="10" d="M486.994,197.301
	c-3.476,1.337-1.205,6.188-3.788,8.255c-4.75,5.591-10.302,10.531-14.741,16.399c-0.165,3.733-1.48,7.633-1.097,11.254
	c1.435,3.274,4.148,6.181,4.837,9.692c-0.94,3.188-5.106,1.103-7.446,1.442c-2.813-0.708-5.146,0.774-7.279,2.346
	c-1.341,0.078-0.511,1.686-1.769,2.114c-2.188,1.49-4.885,3.061-4.403,6.172c-0.589,2.199-3.808,1.133-5.319,2.43
	c-5.165,3.686-11.54,5.194-17.14,8.113c-1.314,5.315-1.801,11.408-6.646,14.727c-2.465,2.834-6.209,4.832-7.813,8.255
	c0.834,3.18,4.493,4.748,6.865,6.755c2.604,2.308,6.244,1.713,9.013,3.767c1.737,1.823,2.866,0.178,4.325-0.72
	c1.967-0.86,4.81-1.76,5.327,1.229c1.225,2.501,3.9,4.992,1.284,7.562c-2.19,4.397-2.021,9.48-2.604,14.252
	c0.818,2.482,4.816,5.215,1.501,7.357c-1.848,1.771-3.437,4.221-2.146,6.753c0.16,2.616-3.371,3.668-3.662,6.361
	c-0.912,4.297-2.62,8.417-4.672,12.138c1.396,1.557,4.129,2.016,3.692,4.608c0.615,3.588-0.06,8.372,3.921,10.22
	c2.818,2.994,6.819,0.27,10.253,0.702c4.722-0.071,9.443,0.508,14.143,0.616c5.254-3.538,10.6-6.979,15.784-10.592
	c1.209-3.879,2.688-7.735,3.726-11.633c-3.665-5.248-7.327-10.5-10.986-15.752c2.343-3.396,2.538-7.828,4.577-11.238
	c2.031-1.877,4.159-4.379,7.224-3.289c3.689,0.127,7.479,0.703,11.087,0.797c4.604-6.482,3.464-14.881,6.233-21.939
	c5.581-5.988,11.062-12.71,13.116-20.85c-0.121-3.021,4.093-1.97,5.989-2.638c3.241,0.202,5.239-0.955,3.907-4.434
	c-0.866-6.747,4.002-12.709,3.261-19.523c-0.343-2.727,1.286-6.525-2.16-7.684c-2.867-1.467-4.836-3.364-3.684-6.786
	c0.023-3.124,0.557-6.379,0.294-9.426c-3.561-1.189-6.409-3.958-9.28-6.172c-1.332-5.467-1.267-11.468-2.668-16.841
	c-6.297-0.707-12.856-0.737-18.467-4.01C488.733,197.861,487.895,197.267,486.994,197.301L486.994,197.301L486.994,197.301z"/>
<path id="path19" value="烏來" stroke-width="0" fill="#D5E6A2" stroke="#6D6E71" stroke-miterlimit="10" d="M230.822,378.135
	c-2.564,2.453-3.907,6.322-6.487,8.578c-7.068,1.842-14.401,3.832-20.628,7.662c-2.428,1.981-4.218,5.7-7.924,4.973
	c-3.061,0.769-4.094,4.638-5.997,6.771c0.496,3.021,1.646,5.969,4.057,7.987c-0.314,5.176,0.612,10.601-0.41,15.642
	c-2.233,2.355-7.58-0.569-8.342,3.483c-0.487,2.646-4.253,5.653-1.791,8.021c1.354,1.463,1.115,4.051-1.153,4.42
	c-2.057,1.283-5.997,1.238-5.84,4.482c0.161,2.177-0.665,4.407-3.03,4.782c-2.809,0.729-5.788-0.31-8.555-0.017
	c-2.486,5.049-5.712,9.903-7.75,15.073c-0.623,2.654,1.373,6.757-1.283,8.286c-4.381,2.63-6.341,7.507-10.631,10.31
	c-3.671,3.011-8.086,7.424-6.236,12.608c1.079,3.901,2.987,7.47,3.605,11.468c1.46,4.251,2.86,8.7,4.96,12.61
	c2.531,2.722,6.121,4.706,7.928,7.994c0.004,1.843-1.94,5.105,0.789,5.872c1.96,1.047,5.666,1.413,5.035,4.528
	c0.114,4.24,5.892,2.574,7.813,5.352c2.114,3.549,5.816,5.766,8.556,8.744c0.582,4.24,0.625,8.695,1.5,12.863
	c5.093,2.234,10.983,2.7,16.462,2.067c3.625-1.373,6.768-4.058,10.843-4.151c3.979-0.783,8.388-0.421,11.516-3.448
	c3.583-2.39,7.306-4.634,10.803-7.109c0.578-3.071,0.668-6.896,4.104-8.16c6.125-3.063,11.883-7.928,19.063-7.764
	c3.884-0.165,7.896-1.723,9.679-5.385c2.49-3.531,6.896-4.907,11.033-5.271c2.344-6.828,6.024-14.248,3.014-21.497
	c-0.96-4.218-5.531-6.337-5.414-10.885c-1.498-2.843,1.416-4.169,3.164-5.842c2.965-1.253,2.035-5.205,2.45-7.833
	c-0.022-4.123-0.457-9.138,2.862-12.139c3.516-0.897,6.997-2.081,9.976-4.245c2.687,0.089,5.958,3.19,8.21,0.937
	c2.838-2.014,5.87-4.358,6.021-8.17c1.082-2.346-2.852-3.253-3.467-4.872c9.629-1.224,19.395-2.039,28.926-3.634
	c3.097-1.537,6.192-3.078,9.286-4.621c1.541,1.076,2.701,3.917,4.545,4.089c0.964-1.946,1.057-4.939,3.82-5.241
	c2.996-0.352,4.748-2.726,6.107-5.035c2.358-3.026,6.014-5.386,6.661-9.358c2.996-2.938,7.749-3.992,10.875-6.629
	c-1.729-3.454-4.537-6.458-8.522-7.136c-10.654-4.076-22.138-4.658-33.431-4.324c-2.163-3.976-5.414-7.215-9.202-9.659
	c-7.584,0.801-15.771,2.542-22.808-1.404c-5.749-2.181-12.337-0.505-18.056-2.272c-4.543-3.967-10.021-7.055-15.547-9.375
	c-3.631,0.313-7.652,1.009-11.238,0.174c-1.7-2.346-0.685-5.891-1.349-8.655c-0.954-2.483-5.653-0.496-8.122-1.131
	c-2.805-0.496-6.884,1.468-8.119-2.062C232.427,379.844,231.905,378.315,230.822,378.135"/>
<path id="path21" value="三峡" stroke-width="0" fill="#FCC7A1" stroke="#6D6E71" stroke-miterlimit="10" d="M83.782,331.02
	c-5.964,6.623-13.842,10.904-20.281,17.031c2.775,2.147,3.49,3.598-0.38,5.224c-3.926,2.593-7.175,6.745-8.074,11.339
	c0.987,3.521,1.042,7.52,2.613,10.773c3.735,3.229,8.836,4.873,12.343,8.233c2.91,4.459,5.813,8.923,8.714,13.392
	c-1.693,2.021-4.183,4.221-2.984,7.148c0.145,4.289,5.182,5.342,7.876,7.766c-4.326,4.582-10.951,4.448-16.729,5.729
	c-0.211,1.635-1.301,4.159-0.428,5.714c2.98,0.695,6.707,1.894,8.914-1.077c2-3.004,3.6,1.36,5.514,2.34
	c6.839,5.668,17.124,7.402,24.984,2.764c4.932-1.309,10.331-1.279,15.405-1.074c2.821,0.346,3.861,2.647,5.273,4.671
	c2.717,2.343,3.635,5.804,5.429,8.777c3.37,4.349,7.934,7.598,12.263,10.796c2.996,2.183,3.962,5.624,4.131,9.178
	c1.01,3.199,0.898,8.433,5.104,9.179c2.729,1.627,4.68-1.532,5.612-3.691c1.903-3.465,3.731-6.97,5.609-10.45
	c3.474-0.15,8.654,1.839,11.001-1.688c0.961-1.923-0.356-4.941,2.32-5.697c1.963-1.278,5.147-1.563,6.156-3.805
	c-0.124-2.098-3.2-3.556-1.225-5.705c1.197-2.157,1.63-5.411,3.749-6.764c2.364-0.389,5.003-0.485,7.15-1.356
	c-0.056-5.13,0.107-10.307-0.079-15.405c-2.286-1.76-3.233-4.624-4.024-7.213c-3.271-0.359-6.958,0.757-10.039-0.441
	c-1.256-2.914-0.375-6.787-3.125-9.154c-2.517-2-2.847-4.674-2.163-7.672c-0.194-3.236,1.161-6.045,3.253-8.428
	c2.515-3.566,3.432-8.686,7.954-10.323c2.997-1.28,1.438-5.153,2.271-7.633c1.452-4.385-2.13-7.918-3.516-11.815
	c-1.847-2.438-5.56-2.977-8.366-4.147c-3.586-1.165-7.287-1.916-10.954-2.776c-1.05-3.13-2.604-6.133-4.798-8.57
	c-2.672,0.524-6.256-1.067-8.348,0.828c-1.838,2.25-3.925,5.105-7.263,4.174c-1.796,0.027-2.531-2.074-4.357-2.271
	c-3.221-1.634-6.654,2.367-9.784,0.854c-1.811-3.769-8.04-1.547-8.967-5.967c-0.444-1.188-1.531-3.91-2.84-1.832
	c-1.69,1.045-2.805,4.799-4.75,3.791c-3.555-2.562-7.828-4.49-12.28-3.285C95.685,333.344,89.678,331.416,83.782,331.02
	L83.782,331.02L83.782,331.02z"/>
<path id="path23" value="鶯歌" stroke-width="0" fill="#E8E4F2" stroke="#6D6E71" stroke-miterlimit="10" d="M65.221,304.678c-3.334,0.109-6.98,2.242-6.851,6.014
	c-1.178,3.773,3.584,6.525,2.008,10.357c-0.553,3.568-0.268,7.521-1.33,10.856c-2.627,2.534-4.991,5.537-5.98,9.09
	c1.785,1.991,2.005,6.448,5.429,6.202c2.351,0.18,5.093,1.396,6.804-0.962c6.399-5.962,15.569-9.595,19.588-17.726
	c1.1-4.646,6.598-5.496,9.857-8.234c1.115-0.639,2.872-1.637,1.68-3.066c-2.256-4.488-5.344-8.547-9.028-11.932
	C80.007,305.106,72.614,304.61,65.221,304.678"/>
<path id="path25" value="樹林" stroke-width="0" fill="#B9E5FB" stroke="#6D6E71" stroke-miterlimit="10" d="M123.352,268.564
	c-2.806,3.319-6.983,4.924-10.669,6.755c0.313,2.776,5.379,2.998,4.939,6.346c0.877,2.938-0.326,4.958-3.063,6.046
	c-2.752,1.902-7.06,1.698-8.317,5.381c-2.074,4.313-4.6,8.287-8.934,10.512c-2.429,2.198-5.824,1.784-8.886,1.769
	c0.974,2.544,4.029,4.623,5.492,7.275c1.381,1.96,2.33,4.156,3.283,6.346c-3.774,2.684-8.561,4.195-11.554,7.749
	c-0.322,1.279-2.62,4.351-0.007,4.327c6.793,1.206,13.727,2.275,20.578,0.813c3.2-0.197,5.541,3.426,8.518,4.222
	c6.058-5.515,8.597-13.476,12.043-20.677c3.771-1.418,7.94-3.123,10.496-6.299c-1.118-2.461-4.042-4.117-2.825-7.223
	c0.229-3.704-0.046-7.862,2.825-10.66c1.161-1.42-0.188-3.786,1.547-4.719c-0.797-4.843-3.82-9.204-6.487-13.29
	C130.572,269.829,126.667,269.435,123.352,268.564L123.352,268.564z"/>
<path id="path27" value="林口" stroke-width="0" fill="#DBD5EA" stroke="#6D6E71" stroke-miterlimit="10" d="M86.244,166.002
	c-6.723,4.412-15.367,4.917-21.986,9.565c-10.665,0.042-21.364-0.085-32.009,0.063c-3.414,3.042-6.802,6.388-11.002,8.018
	c-0.098,1.872,2.405,3.209,3.322,4.778c2.124,2.441,4.443,5.037,7.695,5.624c1.544,2.305,3.261,5.124,6.484,4.596
	c5.08,0.759,10.51,0.325,14.945,3.342c6.705,3.348,13.824,6.306,20.224,10.024c0.178,3.189-0.774,6.366-0.868,9.501
	c2.481,2.98,5.486,5.635,9.533,5.967c5.767,1.411,11.887,2.749,17.771,1.925c0.683-2.284,0.211-6.855,3.868-6.33
	c4.586-0.775,6.731,4.369,9.88,6.677c1.747,0.398,4.455-0.479,5.903-1.878c0.587-1.863,0.666-3.95-1.326-5.035
	c-0.799-0.981-4.272-2.888-3.52-3.473c2.437,0.812,4.908-0.843,5.413-3.219c-1.676-1.445-3.966-2.366-5.981-3.173
	c-2.051,2.289-4.952,2.92-7.892,2.257c-0.267-2.757-3.758-6.132-1.602-8.398c2.401-2.171,3.151-5.897,2.64-8.869
	c-2.801-4.647-5.855-9.236-9.499-13.085c-4.52-5.901-7.496-12.871-11.773-18.877l-0.19-0.016L86.244,166.002L86.244,166.002z"/>
<path id="path29" value="八里" stroke-width="0" fill="#B9E5FB" stroke="#6D6E71" stroke-miterlimit="10" d="M125.625,135.682c-4.577-0.26-5.206,5.344-6.599,8.46
	c-3.22,4.042-6.966,8.034-11.49,10.686c-4.396,1.49-8.211,4.196-12.484,5.887c-2.953,1.014-5.938,2.808-8.145,4.862
	c3.892,7.314,7.688,14.948,13.085,21.26c3.397,3.146,5.427,7.677,8.081,11.491c-0.07,3.594-0.946,7.145-3.646,9.659
	c1.168,2.147,0.65,7.284,3.883,6.976c2.345,0.221,4.69-0.403,6.376-2.067c2.179,0.794,4.296,2.827,6.566,2.935
	c1.462-4.403,1.465-9.36,1.783-14.015c-0.073-4.77-3.306-8.74-5.294-12.674c0.161-3.204,0.315-6.408,0.465-9.613
	c3.406-1.155,7.818-1.485,9.303-5.332c1.391-2.991,5.549-1.219,8.247-1.955c2.999,0.081,6.567-1.435,8.474,1.707
	c3.72,3.394,7.313,7.54,12.693,7.916c2.91,0.32,5.595,2.079,8.302,2.62c0.846-1.813,1.323-4.547-0.931-5.461
	c-1.482-1.982-2.722-4.18-4.768-5.698c-1.136-2.625-1.429-5.666-3.566-7.844c-1.986-2.253-3.338-4.913-3.347-7.94
	c-0.73-6.411-6.89-9.762-11.096-13.858C136.965,140.02,131.869,135.444,125.625,135.682"/>
<path id="path31" value="五股" stroke-width="0" fill="#DBD5EA" stroke="#6D6E71" stroke-miterlimit="10" d="M135.175,172.379
	c-2.917,0.552-6.975-0.865-8.192,2.762c-1.794,3.216-5.997,3.188-8.839,4.766c0.147,3.369-0.723,7.007,0.011,10.223
	c3.745,4.81,5.95,10.876,4.678,17.02c0.043,3.03-1.476,6.192-0.806,9.139c4.523,3.528,10.976,3.578,15.61,6.755
	c2.225,1.697,5.411,5.067,8.255,2.541c2.313-1.121,6.049-3.011,7.876-0.252c0.627,2.061-0.505,4.753,0.695,6.598
	c5.283-1.646,10.846-3.751,15.625-6.772c2.396-1.723-0.017-5.102-1.137-6.897c-1.933-3.345-6.106-5.241-7.37-8.934
	c-0.558-5.76,2.888-10.87,5.603-15.626c-0.998-2.711-1.545-5.763-2.115-8.427c-4.827-3.953-12.206-2.417-16.415-7.34
	c-2.568-1.832-4.713-4.856-7.575-5.949C139.111,172.117,137.142,172.248,135.175,172.379"/>
<path id="path33" value="蘆洲" stroke-width="0" fill="#D5E6A2" stroke="#6D6E71" stroke-miterlimit="10" d="M167.594,193.766
	c-3.13,3.698-5.319,8.609-6.029,13.463c-1.026,4.768,4.546,6.853,6.881,10.007c2.2,1.655,1.363,5.708,4.025,6.771
	c3.077-0.36,6.442-2.257,6.487-5.761c0.523-2.237,3.957-1.063,4.482-3.503c2.016-4.511,5.445-8.329,7.797-12.533
	c-1.968-1.927-3.562-4.66-6.75-4.132c-5.695-0.911-12.049-0.415-16.688-4.296C167.737,193.749,167.659,193.735,167.594,193.766"/>
<path id="path35" value="泰山" stroke-width="0" fill="#B9E5FB" stroke="#6D6E71" stroke-miterlimit="10" d="M120.952,216.446
	c-1.355,1.509-2.907,4.339-5.351,2.999c0.354,2.501,5.895,3.427,4.76,6.877c0.392,3.184-3.544,2.961-5.549,3.809
	c-2.708-2.345-5.286-4.918-8.065-7.134c-1.977,0.417-5.723-0.112-5.635,2.92c-0.093,1.166-1.638,3.833,0.68,3.677
	c4.17-0.635,7.859,1.581,10.181,4.878c2.602,2.372,3.475,5.746,4.513,8.933c1.502,1.545,4.131,2.197,4.31,4.751
	c1.074,2.73,4.021,0.191,5.949,1.215c1.878,1.044,3.566-0.729,5.305-0.631c2.292,1.576,5.281,0.125,7.765,1.325
	c3.226,0.481,6.517-1.311,8.902-3.299c2.22-3.451,0.334-7.699-0.078-11.221c1.478-2.29,6.221-2.251,5.303-5.745
	c0.214-2.182,0.239-5.994-2.856-5.904c-2.768,0.266-5.168,1.883-7.529,3.015c-4.203-1.736-7.232-5.61-11.885-6.408
	C127.926,219.533,124.391,217.904,120.952,216.446"/>
<path id="path37" value="新莊" stroke-width="0" fill="#DDD8EC" stroke="#6D6E71" stroke-miterlimit="10" d="M165.431,228.237
	c-5.793,1.773-11.798,4.085-16.937,7.213c1.156,3.874,2.77,8.69-0.314,12.074c-3.072,2.082-6.764,3.449-10.465,2.162
	c-1.399-0.43-2.88-0.141-4.088,0.269c-1.772-2.252-4.271,0.496-6.44-0.379c-1.721-1.053-3.41-0.036-5.05,0.142
	c-1.944-1.352-2.226-5.46-5.13-5.366c-0.933,1.839-1.456,4.106-2.541,5.997c-1.17,5.375,2.426,10.513,6.961,13.054
	c1.104,1.097,4.069,1.976,2.478,3.945c-0.699,2.137,2.898,1.58,3.961,2.352c4.668,1.168,6.202,6.484,8.571,10.118
	c1.457,2.467,1.971,6.725,5.587,6.676c2.26,0.646,2.183-3.029,3.161-4.271c2.253-6.542,4.579-13.356,9.987-17.936
	c4.312-4.557,9.855-7.868,14.347-12.17c0.361-2.056-1.709-3.951-2.006-6.04c-1.082-1.901,2.114-2.929,1.99-5.04
	c0.76-2.798,0.642-5.871-1.578-7.892C166.281,231.791,168.223,227.998,165.431,228.237"/>
<path id="path39" value="三重" stroke-width="0" fill="#B9E5FB" stroke="#6D6E71" stroke-miterlimit="10" d="M191.205,203.063
	c-3.115,3.942-6.245,8.189-8.317,12.814c-1.229,1.231-3.783,0.646-4.009,2.968c-0.531,4.546-6.094,4.896-9.227,6.994
	c-3.088,0.41-3.181,2.783-2.343,5.223c0.49,2.811,3.689,4.612,2.629,7.747c0.092,2.382-0.921,4.393-2.251,6.205
	c0.136,2.158,0.991,4.411,1.815,6.314c6.854-0.054,13.753,0.106,20.582-0.079c4.374-4.367,8.136-9.289,11.49-14.458
	c-0.417-7.449-0.135-15.072-0.945-22.417c-2.253-4.252-4.723-9.285-9.282-11.329h-0.063L191.205,203.063L191.205,203.063z"/>
<path id="path41" value="板橋" stroke-width="0" fill="#D5E6A2" stroke="#6D6E71" stroke-miterlimit="10" d="M171.35,251.376
	c-8.009,6.022-17.007,11.728-22.065,20.582c-2.31,4.645-3.542,9.938-5.65,14.584c-1.816,0.052-5.594-1.058-5.587,1.926
	c1.007,3.358-3.887,4.671-3.283,8.081c0.431,2.944-0.888,6.053,0.047,8.84c1.453,2.352,4.136,5.908,7.229,3.897
	c4.099-4.817,5.678-11.588,10.116-16.131c2.676-1.942,5.747-0.151,8.65-0.679c2.386-0.099,5.683,2.588,7.67,0.505
	c1.339-2.808-0.147-6.587,1.057-9.102c4.366-1.814,5.824-6.775,8.635-10.139c3.327-0.083,7.5,2.222,9.976-1.089
	c1.143-2.282-0.618-5.101-0.377-7.602c-0.383-4.08-1.503-8.493,1.008-12.112c1.097-3.243-5.226-0.9-7.339-1.61
	C178.076,251.36,174.697,251.264,171.35,251.376"/>
<path id="path43" value="永和" stroke-width="0" fill="#DBD5EA" stroke="#6D6E71" stroke-miterlimit="10" d="M207.527,268.516c-3.31,0.714-3.937,5.143-7.166,6.172
	c-1.231,1.404,0.934,3.604,0.942,5.232c-0.7,4.839,4.803,2.075,5.183,5.039c0.934,1.941-0.206,7.648,2.398,6.774
	c2.646-1.732,5.472-3.042,8.663-2.722c1.809-0.532,4.834-0.426,5.59-2.108c0.332-5.268-0.086-11.889-5.4-14.569
	C214.63,270.59,211.19,268.587,207.527,268.516"/>
<path id="path45" value="深坑" stroke-width="0" fill="#DBD5EA" stroke="#6D6E71" stroke-miterlimit="10" d="M309.221,264.476
	c-3.882,0.273-7.33,2.419-10.574,4.093c-4.87,0.157-10.051-1.391-14.76,0.042c-5.758,2.652-8.101,9.794-5.98,15.641
	c2.082,5.823,2.663,11.926,2.699,18.088c-0.221,2.025,0.476,3.855,2.588,4.451c4.246,2.053,8.478,4.971,13.195,5.571
	c4.539-2.017,7.709-6.394,11.584-9.448c4.31-2.208,1.104-8.143,4.5-10.991c1.198-1.546,4.507-3.4,2.225-5.492
	c-1.305-2.283-3.662-4.353-2.646-7.304c-0.214-3.297,1.545-7.615-1.27-10.105c-0.738-1.419,1.381-4.553-1.136-4.562L309.221,264.476
	z"/>
<path id="path47" value="新店" stroke-width="0" fill="#DBD5EA" stroke="#6D6E71" stroke-miterlimit="10" d="M223.405,292.413
	c-3.143-0.316-4.648,0.967-3.425,4.025c-0.212,1.929-3.4,0.942-4.676,1.581c-2.075-0.209-3.847,0.992-3.737,3.217
	c-1.496,3.525-6.739,3.49-7.938,7.418c-1.146,3.786-6.003,2.779-8.94,3.827c-3.98-0.429-5.189,3.702-7.901,5.644
	c-2.843,0.876-6.708-0.373-8.555,2.73c-2.74,4.042-5.459,8.165-10.035,10.35c-2.438,1.748-5.478,3.063-7.548,5.071
	c1.928,2.481,3.388,5.315,4.436,8.223c6.409,1.818,13.486,3.056,19.092,6.487c1.948,4.419,5.055,8.826,3.666,13.912
	c-0.112,2.718-0.311,6.014-3.407,7.001c-4.239,2.92-5.152,8.543-8.539,12.248c-1.95,3.145-1.305,7.163-1.704,10.67
	c2.633,2.455,5.206,5.274,4.908,9.139c0.108,1.359,0.2,3.286,2.146,2.825c2.668-0.115,5.977,0.768,8.227-0.415
	c2.068-2.084,2.967-6.06,5.899-7.019c5.039,0.535,6.906-5.506,11.302-6.852c5.881-2.547,12.008-4.527,18.183-6.171
	c2.03-2.751,3.878-6.187,6.124-8.492c2.07,1.521,2.529,5.796,5.793,4.826c4.192-0.108,8.387-0.211,12.579-0.312
	c0.466,3.441,0.218,7.229,1.405,10.433c3.259-0.271,6.813,0.14,9.896-0.536c0.142-3.977-0.906-8.277,1.088-11.854
	c0.211-2.67,1.328-6.342-1.894-7.523c-1.778-1.619-4.696-2.896-5.823-4.836c3.93-2.229,9.209-1.58,13.194-4.15
	c1.789-0.369,4.015-3.771,5.493-2.035c0.754,1.64,2.69,5.086,4.655,2.683c0.813-3.758,0.35-7.782-1.397-11.172
	c-1.503-4.095-0.327-8.95,2.614-12.077c1.24-0.377,3.818-0.564,2.871-2.541c-0.168-1.234-2.088-2.959-1.53-3.993
	c1.688-1.847,5.164-0.741,5.776-3.646c0.764-2.262,2.597-4.771,0.109-6.6c-1.6-1.834,1.857-2.806,1.879-4.688
	c0.739-1.299,0.082-3.568-1.721-2.637c-3.158,0.916-5.982,3.26-9.418,2.019c-8.062-1.038-16.351-1.452-24.271-2.868
	c-3.16-2.431-7.162-4.273-9.82-7.058c-1.104-3.526-1.45-7.522-3.035-10.794c-3.613-0.561-7.647-0.584-10.386-3.505
	C227.36,293.786,225.668,291.972,223.405,292.413"/>
<path id="path49" value="坪林" stroke-width="0" fill="#E4DFEF" stroke="#6D6E71" stroke-miterlimit="10" d="M425.105,296.785
	c-2.271,1.579-3.807,5.479-7.063,4.008c-2.733-0.932-5.014-0.482-6.448,2.116c-2.299,1.976-5.975,0.164-8.396,2.084
	c-2.879-0.313-5.086-4.131-8.202-2.147c-5.212,1.648-10.759,2.313-16.041,3.017c0.28,1.919-0.407,4.174-2.668,3.93
	c-2.709,0.286-5.522-0.069-8.177,0.253c-1.914,1.932-2.334,6.557-5.696,5.898c-3.136,0.104-6.351-0.128-9.439,0.146
	c-2.313,2.693-4.05,6.396-6.705,8.496c-3.094,0.805-8.315-0.576-9.408,3.547c-1.465,3.256,3.981,5.432,2.033,8.822
	c-0.084,2.825-2.277,6.283,0.754,8.225c1.646,2.168,4.115,4.1,5.166,6.502c-0.187,2-0.951,4.287-3.313,4.451
	c-2.38,0.59-3.068,3.672-5.697,3.52c-2.083,1.896,1.477,4.943,0.11,7.182c-0.463,1.494-1.54,2.637-3.204,2.399
	c-3.479,0.194-3.714,5.079-7.245,4.813c-2.237-0.146-2.772,3.153-2.272,4.766c1.76,1.378,3.037,3.195,2.432,5.572
	c0.091,2.313-3.482,3.996-1.563,6.377c1.788,2.323,2.893,5.754,1.703,8.522c-2.668,0.601-6.207,2.617-6.045,5.666
	c0.848,2.333,3.178,3.601,4.813,5.178c1.718,1.737,1.97,5.732,5.162,4.845c10.3-0.289,20.738,0.272,30.442,3.996
	c3.419,0.603,6.496,2.25,8.289,5.333c0.752,1.325,2.308,2.588,3.457,0.853c4.465-4.78,8.468-11.178,15.61-11.79
	c7.999-0.778,15.932,1.688,23.864,2.288c3.476-1.84,7.357-2.965,11.033-4.01c0.352-4.088-0.976-9.023,2.698-11.994
	c3.146-3.946,1.418-9.342,0.631-13.717c3.458-5.783,8.515-10.271,13.386-14.82c0.854-1.348-1.662-1.299-2.037-2.352
	c-2.188-1.629-4.008-3.459-3.446-6.432c-0.392-2.779,0.563-6.414-2.939-7.391c-2.955-1.198,1.242-3.965,1.367-6.098
	c1.654-3.926,1.606-8.771,5.16-11.603c1.323-2.099-1.013-5.106,1.327-6.771c1.04-1.57,3.993-3.271,2.115-5.352
	c-1.342-2.42-2.869-4.771-1.824-7.65c0.285-4.652,1.199-9.228,3.606-13.23c-1.667-1.938-1.966-5.75-4.655-6.582
	c-2.135-0.164-4.23,0.799-5.478,2.557C429.898,299.137,427.551,297.565,425.105,296.785"/>
<path id="path51" value="石碇" stroke-width="0" fill="#B9E5FB" stroke="#6D6E71" stroke-miterlimit="10" d="M356.019,247.856
	c-3.869,0.308-8.278,0.373-10.732,3.898c-5.163,4.189-12.854,4.101-17.868,8.381c-0.17,1.055,2.111,0.637,1.327,1.894
	c-0.321,2.97-1.917,3.905-4.657,3.094c-4.277-0.187-8.757-0.815-12.926-0.521c-0.51,2.127-0.983,4.649,0.883,6.219
	c0.972,3.817-0.659,8.135,0.237,11.877c1.02,2.456,5.439,5.116,2.017,7.321c-2.396,2.2-3.935,5.081-3.768,8.376
	c0.191,3.597-3.876,5.063-5.813,7.491c-3.131,2.73-6.006,6.219-10.178,7.028c-1.318,1.54,0.452,5.104-2.763,4.072
	c-1.965-0.452-4.528,0.494-3.993,2.92c-0.007,2.217-4.343,3.498-1.468,5.304c2.068,2.146-0.454,5.266-1.373,7.387
	c-1.432,1.109-4.068,0.783-5.113,2.604c0.454,1.507,3.181,4.181,1.168,5.492c-2.288,0.087-3.979,1.685-4.459,3.946
	c-2.27,3.938-0.768,8.463,0.828,12.248c0.156,2.602,1.072,5.752-0.126,8.111c-0.974,0.946-2.343,1.254-2.777-0.347
	c-0.988-1.209-2.039-4.491-4.058-2.589c-3.973,2.841-8.596,4.222-13.337,4.939c-1.04,0.111-3.524,0.815-1.847,2.037
	c1.942,2.269,5.324,3.57,6.803,5.934c-0.076,2.629,0.474,5.559-1.215,7.719c-0.297,2.859-0.867,6.352,0.567,8.918
	c5.384,2.424,10.688,5.593,15.404,9.218c2.652,2.321,6.8,1.048,10.021,1.722c4.695-0.127,9.133,1.131,13.291,3.108
	c6.024,1.579,12.399,0.089,18.466-0.537c1.653-0.385,0.746-2.72,2.385-3.378c1.185-1.705,3.535-1.773,4.971-2.982
	c1.32-3.625-1.418-6.713-2.745-9.676c1.59-2.369,3.746-5.642,1.563-8.365c-1.206-1.157-2.615-2.688-1.577-4.498
	c0.094-1.653,1.194-2.625,2.856-2.305c3.041-0.527,3.627-4.908,6.977-4.703c2.693-0.354,4.046-3.51,2.588-5.793
	c-0.434-1.321-1.742-3.93,0.773-3.852c2.496-1.232,4.186-3.452,6.881-4.34c2.014-1.864,1.492-5.098-0.752-6.623
	c-1.967-2.488-5.567-4.953-4.149-8.617c0.334-2.703,1.735-5.656-0.623-7.852c-2.042-1.838-1.437-4.854,0.475-6.377
	c2.662-1.355,6.477-0.279,8.944-1.813c1.916-2.657,3.833-5.313,5.75-7.972c3.855-0.104,7.829,0.195,11.617-0.145
	c1.447-2.635,3.142-6.652,6.818-5.934c2.336-0.378,5.391,0.354,7.261-1.278c0.544-4.944,4.7-8.805,6.049-13.381
	c-0.023-3.607-1.308-6.94-3.208-9.916c0.82-2.102,1.628-4.449,1.326-6.866c0.945-2.792-2.6-3.134-4.577-2.918
	c-1.657,1.262-2.931,1.841-4.42-0.19c-2.229-2.234-5.327-4.346-6.679-7.052c-0.045-2.726,1.463-5.956,0.502-8.399
	c-3.764-3.758-8.334-6.949-10.49-11.823C356.816,247.778,356.4,247.75,356.019,247.856"/>
<path id="path53" value="平渓" stroke-width="0" fill="#D5E6A2" stroke="#6D6E71" stroke-miterlimit="10" d="M433.312,220.582
	c-4.217,2.367-8.959,2.772-13.701,2.51c-1.889,2.447-2.563,6.418-4.733,8.339c-7.167-0.402-13.187,3.829-19.353,6.797
	c-3.004,0.21-6.461-1.349-9.264-0.016c-2.396,3.446-7.265,4.235-9.613,7.908c-2.864,3.13-5.244,6.775-7.229,10.417
	c-1.007,1.015-5.297,0.152-3.172,1.973c3.282,1.276,1.156,4.747,1.248,7.353c-0.391,2.036-0.408,4.211,1.802,5.21
	c2.258,1.91,4.219,4.389,6.625,5.967c1.442-1.804,3.561-2.176,5.621-1.213c2.168,0.431,1.113,3.87,1.418,5.711
	c-0.038,2.1-2.947,3.683-0.531,5.509c2.469,3.639,3.217,8.982,0.17,12.548c-0.412,1.722-4.925,6.359-1.205,5.807
	c5.563-0.284,10.896-1.906,16.229-3.407c2.155,0.931,4.545,4.171,6.993,2.272c2.718-0.883,6.526,0.564,8.087-2.711
	c2.006-3.141,6.626,0.768,9.337-1.52c3.143-1.807,1.421-3.652-1.185-4.977c-2.504-2.082-5.89-3.771-6.896-7.114
	c4.2-4.111,8.469-8.168,12.612-12.327c0.954-3.271,0.792-7.12,2.446-10.069c5.664-2.989,11.955-4.978,17.425-8.46
	c1.536-0.981,5.472-0.207,4.878-2.999c-1.044-3.587,4.754-3.942,5.112-6.977c-2.132-1.144-2.91-4.17-3.709-6.377
	c-0.796-2.376,1.887-6.045-1.646-6.717c-3.461-1.693-7.553-3.12-8.341-7.374c-1.156-2.836-1.972-6.122-3.698-8.543
	C437.13,218.93,435.221,219.756,433.312,220.582"/>
<path id="path55" value="汐止" stroke-width="0" fill="#DBD5EA" stroke="#6D6E71" stroke-miterlimit="10" d="M293.137,160.477
	c-1.896,2.763-3.813,5.786-7.197,6.771c-2.244,0.879-3.062,2.954-4.229,4.657c-2.404,2.076-3.89,5.526-3.599,8.665
	c5.834,6.846,13.904,11.741,19.855,18.42c1.653,3.166,0.971,7.218,1.786,10.696c0.414,3.605-2.604,6.66-3.764,9.991
	c-1.395,3.068-3.267,5.946-5.095,8.56c2.857,2.246,5.41,5.923,4.025,9.659c-1.258,1.968-3.951,3.691-1.622,6.041
	c2.711,5.139,8.405,7.791,12.905,11.163c3.769,2.373,7.775,4.774,12.139,5.777c2.817-0.294,5.598-1.888,8.35-0.9
	c5.123-2.844,11.045-4.307,16.4-6.865c3.009-1.673,4.938-5.603,8.916-4.909c2.288,0.238,5.997-1.942,6.155,1.562
	c1.74,3.038,4.377,5.97,7.576,7.45c2.022,0.076,4.401-0.628,4.782-2.888c3.009-4.419,5.921-9.347,10.513-12.28
	c1.646-0.818,5.084-1.869,4.75-4.167c-1.879-0.9-4.299-0.319-5.76-2.241c-4.701-3.399-8.711-7.855-13.433-11.095
	c-6.09-1.74-12.563-2.818-18.42-4.945c-2.521-2.343-5.141-5.026-4.555-8.768c-1.211-1.094-2.744,2.749-4.789,1.859
	c-2.992-0.234-5.912-1.321-7.324-4.136c-2.455-3.161-6.067-5.257-8.887-7.927c-2.603-6.729-6.646-13.036-8.033-20.121
	c0.703-4.976-3.732-9.224-8.396-9.927c-3.929-1.01-4.433-5.818-5.146-9.139C298.77,160.427,295.564,160.639,293.137,160.477"/>
<path id="path57" value="萬里" stroke-width="0" fill="#FCC7A1" stroke="#6D6E71" stroke-miterlimit="10" d="M315.912,89.72c-2.851,0.963-2.983,5.598-5.729,6.045
	c-3.162-0.429-6,0.013-7.663,3.036c-4.065,4.982-9.087,8.796-14.593,12.063c-3.592,1.756-2.576,6.375-3.5,9.613
	c-0.633,4.368-1.37,9.545-5.67,11.717c-2.404,2.454-4.572,5.281-8.207,5.824c-1.53,0.262-0.869,1.456-0.316,2.225
	c1.354,5.653-1.546,12.658,2.92,17.315c2.485,3.616,7.267,5.55,8.87,9.533c-0.179,1.61,1.446,2.468,2.479,1.073
	c2.682-1.645,5.604-2.915,7.293-5.775c1.055-1.642,2.599-3.058,4.618-1.966c3.025,0.761,6.123,1.015,5.229-3.112
	c4.986-1.354,11.621-0.125,15.94-3.872c6.1-4.06,13.931-2.622,20.213-6.287c3.804-1.406,6.258-4.859,9.557-6.924
	c3.523,0.327,5.842-2.45,7.67-4.987c2.394-2.491,6.832-2.727,8.523-5.793c-0.188-2.953-4.112-2.118-5.762-3.678
	c-3.738-3.129-9.935-3.59-11.979-8.571c-1.255-3.667,2.569-6.612,5.649-7.655c1.791-0.526,4.186-2.653,1.987-4.261
	c-2.206-1.22-2.932-2.789-0.489-4.262c2.267-2.4,6.552-3.323,7.75-6.629c0.139-1.543-1.498-2.23-2.352-0.741
	c-3.881,2.821-7.273,6.646-11.254,9.081c-5.599,0.245-11.196,0.49-16.794,0.736c-4.736-4.516-8.745-10.165-14.125-13.732
	C316.096,89.703,316,89.692,315.912,89.72"/>
<path id="path59" value="金山" stroke-width="0" fill="#B9E5FB" stroke="#6D6E71" stroke-miterlimit="10" d="M294.637,46.188c-1.27,0.563-4.158,2.096-2.383,3.614
	c2.916,3.136,2.02,8.127,3.075,12.059c-1.483,3.15-3.815,4.651-7.321,3.901c-3.617,0.301-8.148-0.475-11.002,2.128
	c-0.494,1.708,1.725,4.277-0.584,5.335c-3.451,1.298-5.394,4.346-6.912,7.45c-1.34,2.344-5.578,1.556-5.432,4.909
	c0.188,3.565-2.217,5.161-5.279,6.274c-4.983,2.481-10.291,5.435-13.22,10.283c1.935,3.68,4.308,7.392,6.124,11.222
	c4.096,0.173,8.616-0.462,12.645-0.71c0.869,4.585-0.446,9.121-1.61,13.431c-0.212,2.97-1.136,6.589,2.006,8.341
	c2.145,1.936,3.991,5.689,7.159,3.09c4.089-0.948,5.437-5.406,9.034-7.074c3.67-3.942,2.852-10.1,4.215-15.026
	c-0.148-2.56,1.444-4.286,3.612-5.351c6.58-3.482,11.591-9.066,16.778-14.3c2.838-0.125,6.507,1.034,7.263-2.75
	c0.841-1.656,1.896-3.523,3.912-3.515c0.688-1.288-0.799-3.174,0.867-4.215c1.783-1.13,2.539-3.405,0.9-5.082
	c-2.372-1.304-5.485-0.068-7.86-1.673c-2.871-1.338-4.965-3.916-7.196-6.14c0.979-6.412,2.782-14.142-2.289-19.367
	c-2.539-1.829-3.691-5.082-6.188-6.834C294.85,46.176,294.738,46.152,294.637,46.188"/>
<path id="path61" value="淡水" stroke-width="0" fill="#DBD5EA" stroke="#6D6E71" stroke-miterlimit="10" d="M154.666,72.76c-1.232,0.685-1.146,2.547-1.761,3.699
	c-0.751,2.695-1.761,5.315-3.234,7.665c-0.947,2.458-0.413,5.457-2.415,7.474c-2.8,3.692-7.699,5.349-10.055,9.47
	c-0.577,2.327-0.561,4.848-1.894,6.918c-1.446,2.884-2.934,5.748-4.404,8.621c-2.51,0.652-5.066,1.639-7.654,1.31
	c-0.769,0.529-0.029,1.713,0.236,2.383c2.405,2.897,5.373,5.332,8.207,7.789c2.083,1.856,5.11,0.523,7.397,1.941
	c2.767,1.337,5.762,2.481,8.33,4.064c1.939,3.041,3.191,6.853,6.44,8.745c4.339,3.346,6.016,8.904,8.52,13.583
	c1.081,1.821,1.721,3.771,1.743,5.899c0.693,5.825,1.27,11.73,2.025,17.507c0.96,0.431,1.915-0.88,2.806-1.153
	c1.764-0.484,2.205-1.844,1.89-3.519c0.105-1.655-0.218-3.469,0.166-5.02c2.007-1.99,3.429-4.457,5.185-6.597
	c2.999-2.544,4.107-6.445,5.903-9.809c2.053-0.758,4.341-1.107,6.243-2.17c1.398-2.63,1.699-5.864,4.03-7.918
	c2.32-2.603,4.456-5.448,6.885-7.907c2.731-1.233,5.418-2.824,8.521-2.603c2.018,0.06,4.049-0.322,5.593-1.718
	c1.783-1.033-1.569-1.727-2.246-2.493l-10.078-6.032c-0.709-1.232-0.926-2.914-1.957-3.875c-1.975-0.23-4.035,0.76-5.943,0.426
	c-1.045-1.139-1.785-2.782-3.09-3.544c-2.304-0.467-4.833-0.58-7.003-1.318c-0.263-1.041-0.991-2.349-0.715-3.296
	c0.622-0.82,2.063-1.191,2.254-2.227c-0.621-1.008-2.68-0.946-2.139-2.478c0.188-2.143,0.038-4.532,0.513-6.543
	c2.178-0.669,4.563-0.87,6.724-1.546c0.698-1.188,1.275-2.53,0.766-3.891c-0.073-2.435,1.931-4.751,0.813-7.161
	c-0.438-1.219-0.444-2.708-1.192-3.746c-3.735-0.617-7.533-0.972-11.055-2.464c-3.96-1.31-7.86-2.934-11.847-4.081
	c-2.235-0.079-4.643,0.318-6.772-0.045c-1.87-1.459-3.498-3.427-5.705-4.348L154.666,72.76L154.666,72.76z"/>
<path id="path63" value="石門" stroke-width="0" fill="#DBD5EA" stroke="#6D6E71" stroke-miterlimit="10" d="M255.334,18.653c-3.316-0.162-5.656,2.898-6.425,5.812
	c0.021,2.147-1.766,1.798-3.347,1.733c-4.711-0.014-9.423-0.026-14.134-0.04c-1.631-1.631-3.055-3.636-4.901-4.956
	c-1.107,0.154-2.103,1.054-2.903,1.744c-0.146,1.7,0.283,3.711-0.213,5.22c-1.587,1.063-3.114,2.278-5.13,2.21
	c-3.861,0.484-7.833,1.357-11.648,1.488c-0.843-1.039-0.681-2.875-1.902-3.551c-1.626,0.405-1.316,2.652-1.633,3.926
	c0.249,1.741-1.009,2.63-2.283,3.513c-0.698,0.547-2.166,1.244-1.253,2.284c2.324,3.62,5.128,6.973,7.884,10.259
	c1.576,0.406,3.498,0.42,4.807,1.42c0.395,1.99,0.077,4.165,0.552,6.093c2.788,0.96,5.544,2.371,8.35,3.062
	c1.322-1.394,2.643-2.787,3.961-4.183c2.084,0.009,4.266,0.917,6.3,0.284c0.977-0.732,1.415-1.974,2.247-2.848
	c0.681,1.805,1.612,3.643,1.871,5.548c-1.104,4.336-1.8,8.848-3.496,12.981c-0.814,0.88-1.073,1.896-0.063,2.699
	c0.849,0.917,1.753,2.401,3.167,1.49c1.118-0.16,2.519-0.972,3.556-0.661c0.828,1.897,1.75,3.805,2.234,5.808
	c-0.047,1.879-0.824,4.084,0.6,5.638c2.25,3.459,4.228,7.173,6.652,10.469c1.099,0.685,2.574,0.274,3.465-0.528
	c3.728-2.16,7.787-3.807,11.506-5.911c0.489-2.051,0.687-4.255,1.47-6.195c1.443-0.862,3.37-1.097,4.586-2.191
	c1.084-1.929,1.854-4.17,3.127-5.91c1.603-1.055,3.791-1.442,5.022-2.956c0.422-1.576-0.704-3.299-0.567-4.806
	c2.213-0.87,4.308-2.433,6.795-1.923c2.924,0.015,5.914,0.315,8.799,0.14c0.824-1.411,2.352-2.599,2.764-4.141
	c-0.425-3.249-0.731-6.53-1.231-9.756c-1.011-1.056-2.021-2.111-3.029-3.165c1.261-1.13,2.973-1.912,3.906-3.33
	c-1.888-2.763-3.642-5.736-5.942-8.168c-2.624-1.184-5.56-1.756-8.287-2.74c-2.411-2.902-4.334-6.558-8.073-7.938
	c-2.397-1.018-5.362,0.575-7.383-1.449c-3.175-1.933-5.214-5.66-9.063-6.459C255.811,18.62,255.572,18.642,255.334,18.653
	L255.334,18.653z"/>
<path id="path65" value="三芝" stroke-width="0" fill="#FCC7A1" stroke="#6D6E71" stroke-miterlimit="10" d="M198.788,37.325c-3.313,0.902-6.846,1.351-9.92,2.928
	c-2.099,1.757-4.591,2.868-7.261,3.52c-3.438,6.595-6.321,13.586-9.825,20.148c-2.037,0.606-4.296-0.162-6.392-0.284
	c-2.276-0.134-5.178-1.342-6.969,0.702c-1.472,0.759-1.834,2.134-1.672,3.699c0.152,1.526-0.391,2.918-1.524,3.948
	c-0.659,0.964,1.007,1.269,1.405,1.877c1.522,1.022,2.8,2.74,4.466,3.414c2.724,0.069,5.595-0.85,8.134,0.475
	c5.489,1.734,10.779,4.254,16.473,5.235c1.515,0.292,3.289,0.23,4.648,0.75c0.405,1.962,1.373,3.993,1.28,5.978
	c-0.588,2.07-1.521,4.219-0.908,6.373c-0.163,0.93-0.636,2.068-1.321,2.598c-2.151,0.555-4.534,0.679-6.556,1.497
	c-0.145,2.455-0.454,5.01-0.292,7.427c0.499,0.678,3.246,1.085,1.773,2.021c-0.739,0.976-2.749,1.628-1.821,3.099
	c0.004,1.858,1.305,2.418,2.971,2.379c1.652,0.382,3.562,0.331,5.056,0.985c1.089,0.998,1.656,2.739,3.016,3.362
	c1.907,0.065,3.918-0.724,5.729-0.584c1.059,1.75,1.212,4.266,3.417,4.99c3.905,2.262,7.72,4.808,11.696,6.871
	c1.473-0.834,1.72-2.883,2.459-4.284c0.564-1.453,0.866-3.131,2.587-3.586c2.881-1.691,5.84-3.24,8.67-5.002
	c0.908-1.746,1.448-3.857,2.567-5.39c1.725-0.905,3.782-1.395,5.311-2.542c2.238-3.523,4.475-7.047,6.707-10.574
	c0.992,0.567,1.914,3.423,3.072,1.883c1.367-1.414,2.896-2.715,4.094-4.267c-0.084-0.993-1.684-0.133-1.965-1.175
	c-2.56-3.712-4.802-7.639-7.222-11.444c0.185-2.651,0.356-5.419-0.993-7.826c-0.486-1.346-0.887-3.354-2.713-2.146
	c-1.357,0.079-3.083,1.596-4.027,0.068c-0.606-0.77-1.738-1.554-1.778-2.433c2.336-3.591,2.661-8.032,3.811-12.075
	c0.424-1.471,0.77-2.988-0.027-4.4c-0.562-0.725-0.783-4.033-1.877-2.636c-0.903,1.121-1.399,3.157-3.205,2.332
	c-1.588-0.112-3.204-0.49-4.775-0.438c-1.333,1.416-2.667,2.831-4.001,4.246c-2.857-1.098-5.714-2.196-8.57-3.291
	c-0.181-2.026,0.371-4.267-0.379-6.163c-1.713-1.25-4.465-0.302-5.658-2.384c-2.614-3.14-5.186-6.433-7.419-9.818
	C198.976,37.345,198.884,37.296,198.788,37.325"/>
<g id="Layer_2" transform="translate(-191.19921,-1.3377774)">
	<g id="g124">
		
			<text id="text126" transform="matrix(1 0 0 1 388.5183 484.3348)" fill="none" stroke="#FFFFFF" stroke-width="2" stroke-linecap="round" stroke-linejoin="round" font-family="'DFHeiStd-W7-B5pc-H'" font-size="18">烏來區</text>
		<text id="text128" transform="matrix(1 0 0 1 388.5183 484.3348)" font-family="'DFHeiStd-W7-B5pc-H'" font-size="18">烏來區</text>
	</g>
	<g id="g130">
		
			<text id="text132" transform="matrix(1 0 0 1 284.7732 393.6464)" fill="none" stroke="#FFFFFF" stroke-width="2" stroke-linecap="round" stroke-linejoin="round" font-family="'DFHeiStd-W7-B5pc-H'" font-size="18">三峽區</text>
		<text id="text134" transform="matrix(1 0 0 1 284.7732 393.6464)" font-family="'DFHeiStd-W7-B5pc-H'" font-size="18">三峽區</text>
	</g>
	<g id="g136">
		
			<text id="text138" transform="matrix(1 0 0 1 390.3596 351.0057)" fill="none" stroke="#FFFFFF" stroke-width="2" stroke-linecap="round" stroke-linejoin="round" font-family="'DFHeiStd-W7-B5pc-H'" font-size="18">新店區</text>
		<text id="text140" transform="matrix(1 0 0 1 390.3596 351.0057)" font-family="'DFHeiStd-W7-B5pc-H'" font-size="18">新店區</text>
	</g>
	<g id="g142">
		
			<text id="text144" transform="matrix(1 0 0 1 474.3591 351.0057)" fill="none" stroke="#FFFFFF" stroke-width="2" stroke-linecap="round" stroke-linejoin="round" font-family="'DFHeiStd-W7-B5pc-H'" font-size="18">石碇區</text>
		<text id="text146" transform="matrix(1 0 0 1 474.3591 351.0057)" font-family="'DFHeiStd-W7-B5pc-H'" font-size="18">石碇區</text>
	</g>
	<g id="g148">
		
			<text id="text150" transform="matrix(1 0 0 1 545.2717 371.5448)" fill="none" stroke="#FFFFFF" stroke-width="2" stroke-linecap="round" stroke-linejoin="round" font-family="'DFHeiStd-W7-B5pc-H'" font-size="18">坪林區</text>
		<text id="text152" transform="matrix(1 0 0 1 545.2717 371.5448)" font-family="'DFHeiStd-W7-B5pc-H'" font-size="18">坪林區</text>
	</g>
	<g id="g154">
		
			<text id="text156" transform="matrix(1 0 0 1 634.2151 289.7499)" fill="none" stroke="#FFFFFF" stroke-width="2" stroke-linecap="round" stroke-linejoin="round" font-family="'DFHeiStd-W7-B5pc-H'" font-size="18">雙溪區</text>
		<text id="text158" transform="matrix(1 0 0 1 634.2151 289.7499)" font-family="'DFHeiStd-W7-B5pc-H'" font-size="18">雙溪區</text>
	</g>
	<g id="g160">
		
			<text id="text162" transform="matrix(1 0 0 1 713.3401 285.0907)" fill="none" stroke="#FFFFFF" stroke-width="2" stroke-linecap="round" stroke-linejoin="round" font-family="'DFHeiStd-W7-B5pc-H'" font-size="18">貢寮區</text>
		<text id="text164" transform="matrix(1 0 0 1 713.3401 285.0907)" font-family="'DFHeiStd-W7-B5pc-H'" font-size="18">貢寮區</text>
	</g>
	<g id="g166">
		
			<text id="text168" transform="matrix(1 0 0 1 613.3401 205.8807)" fill="none" stroke="#FFFFFF" stroke-width="2" stroke-linecap="round" stroke-linejoin="round" font-family="'DFHeiStd-W7-B5pc-H'" font-size="18">瑞芳區</text>
		<text id="text170" transform="matrix(1 0 0 1 613.3401 205.8807)" font-family="'DFHeiStd-W7-B5pc-H'" font-size="18">瑞芳區</text>
	</g>
	<g id="g172">
		
			<text id="text174" transform="matrix(1 0 0 1 567.8479 265.4872)" fill="none" stroke="#FFFFFF" stroke-width="2" stroke-linecap="round" stroke-linejoin="round" font-family="'DFHeiStd-W7-B5pc-H'" font-size="18">平溪區</text>
		<text id="text176" transform="matrix(1 0 0 1 567.8479 265.4872)" font-family="'DFHeiStd-W7-B5pc-H'" font-size="18">平溪區</text>
	</g>
	<g id="g178">
		
			<text id="text180" transform="matrix(1 0 0 1 489.7576 238.7616)" fill="none" stroke="#FFFFFF" stroke-width="2" stroke-linecap="round" stroke-linejoin="round" font-family="'DFHeiStd-W7-B5pc-H'" font-size="18">汐止區</text>
		<text id="text182" transform="matrix(1 0 0 1 489.7576 238.7616)" font-family="'DFHeiStd-W7-B5pc-H'" font-size="18">汐止區</text>
	</g>
	<g id="g184">
		<g id="g186">
			
				<text id="text188" transform="matrix(1 0 0 1 468.2634 292.5624)" fill="none" stroke="#FFFFFF" stroke-width="2" stroke-linecap="round" stroke-linejoin="round" font-family="'DFHeiStd-W7-B5pc-H'" font-size="12">深坑區</text>
		</g>
		<g id="g190">
			<text id="text192" transform="matrix(1 0 0 1 468.2634 292.5624)" font-family="'DFHeiStd-W7-B5pc-H'" font-size="12">深坑區</text>
		</g>
	</g>
	<g id="g194">
		<g id="g196">
			
				<text id="text198" transform="matrix(1 0 0 1 386.2634 285.9071)" fill="none" stroke="#FFFFFF" stroke-width="2" stroke-linecap="round" stroke-linejoin="round" font-family="'DFHeiStd-W7-B5pc-H'" font-size="12">永和區</text>
		</g>
		<g id="g200">
			<text id="text202" transform="matrix(1 0 0 1 386.2634 285.9071)" font-family="'DFHeiStd-W7-B5pc-H'" font-size="12">永和區</text>
		</g>
	</g>
	<g id="g204">
		<g id="g206">
			
				<text id="text208" transform="matrix(1 0 0 1 365.4734 301.994)" fill="none" stroke="#FFFFFF" stroke-width="2" stroke-linecap="round" stroke-linejoin="round" font-family="'DFHeiStd-W7-B5pc-H'" font-size="12">中和區</text>
		</g>
		<g id="g210">
			<text id="text212" transform="matrix(1 0 0 1 365.4734 301.994)" font-family="'DFHeiStd-W7-B5pc-H'" font-size="12">中和區</text>
		</g>
	</g>
	<g id="g214">
		<g id="g216">
			
				<text id="text218" transform="matrix(1 0 0 1 338.8743 276.4559)" fill="none" stroke="#FFFFFF" stroke-width="2" stroke-linecap="round" stroke-linejoin="round" font-family="'DFHeiStd-W7-B5pc-H'" font-size="12">板橋區</text>
		</g>
		<g id="g220">
			<text id="text222" transform="matrix(1 0 0 1 338.8743 276.4559)" font-family="'DFHeiStd-W7-B5pc-H'" font-size="12">板橋區</text>
		</g>
	</g>
	<g id="g224">
		<g id="g226">
			
				<text id="text228" transform="matrix(1 0 0 1 312.0193 263.1132)" fill="none" stroke="#FFFFFF" stroke-width="2" stroke-linecap="round" stroke-linejoin="round" font-family="'DFHeiStd-W7-B5pc-H'" font-size="12">新莊區</text>
		</g>
		<g id="g230">
			<text id="text232" transform="matrix(1 0 0 1 312.0193 263.1132)" font-family="'DFHeiStd-W7-B5pc-H'" font-size="12">新莊區</text>
		</g>
	</g>
	<g id="g234">
		<g id="g236">
			
				<text id="text238" transform="matrix(1 0 0 1 357.6833 238.7616)" fill="none" stroke="#FFFFFF" stroke-width="2" stroke-linecap="round" stroke-linejoin="round" font-family="'DFHeiStd-W7-B5pc-H'" font-size="12">三重區</text>
		</g>
		<g id="g240">
			<text id="text242" transform="matrix(1 0 0 1 357.6833 238.7616)" font-family="'DFHeiStd-W7-B5pc-H'" font-size="12">三重區</text>
		</g>
	</g>
	<g id="g244">
		<g id="g246">
			
				<text id="text248" transform="matrix(1 0 0 1 352.3572 214.2157)" fill="none" stroke="#FFFFFF" stroke-width="2" stroke-linecap="round" stroke-linejoin="round" font-family="'DFHeiStd-W7-B5pc-H'" font-size="12">蘆洲區</text>
		</g>
		<g id="g250">
			<text id="text252" transform="matrix(1 0 0 1 352.3572 214.2157)" font-family="'DFHeiStd-W7-B5pc-H'" font-size="12">蘆洲區</text>
		</g>
	</g>
	<g id="g254">
		<g id="g256">
			
				<text id="text258" transform="matrix(1 0 0 1 315.6824 209.3768)" fill="none" stroke="#FFFFFF" stroke-width="2" stroke-linecap="round" stroke-linejoin="round" font-family="'DFHeiStd-W7-B5pc-H'" font-size="12">五股區</text>
		</g>
		<g id="g260">
			<text id="text262" transform="matrix(1 0 0 1 315.6824 209.3768)" font-family="'DFHeiStd-W7-B5pc-H'" font-size="12">五股區</text>
		</g>
	</g>
	<g id="g264">
		<g id="g266">
			
				<text id="text268" transform="matrix(1 0 0 1 307.6667 240.7518)" fill="none" stroke="#FFFFFF" stroke-width="2" stroke-linecap="round" stroke-linejoin="round" font-family="'DFHeiStd-W7-B5pc-H'" font-size="12">泰山區</text>
		</g>
		<g id="g270">
			<text id="text272" transform="matrix(1 0 0 1 307.6667 240.7518)" font-family="'DFHeiStd-W7-B5pc-H'" font-size="12">泰山區</text>
		</g>
	</g>
	<g id="g274">
		<g id="g276">
			
				<text id="text278" transform="matrix(1 0 0 1 253.3323 202.3534)" fill="none" stroke="#FFFFFF" stroke-width="2" stroke-linecap="round" stroke-linejoin="round" font-family="'DFHeiStd-W7-B5pc-H'" font-size="12">林口區</text>
		</g>
		<g id="g280">
			<text id="text282" transform="matrix(1 0 0 1 253.3323 202.3534)" font-family="'DFHeiStd-W7-B5pc-H'" font-size="12">林口區</text>
		</g>
	</g>
	<g id="g284">
		<g id="g286">
			
				<text id="text288" transform="matrix(1 0 0 1 296.1057 170.3934)" fill="none" stroke="#FFFFFF" stroke-width="2" stroke-linecap="round" stroke-linejoin="round" font-family="'DFHeiStd-W7-B5pc-H'" font-size="12">八里區</text>
		</g>
		<g id="g290">
			<text id="text292" transform="matrix(1 0 0 1 296.1057 170.3934)" font-family="'DFHeiStd-W7-B5pc-H'" font-size="12">八里區</text>
		</g>
	</g>
	<g id="g294">
		<g id="g296">
			
				<text id="text298" transform="matrix(1 0 0 1 337.8054 131.6708)" fill="none" stroke="#FFFFFF" stroke-width="2" stroke-linecap="round" stroke-linejoin="round" font-family="'DFHeiStd-W7-B5pc-H'" font-size="14">淡水區</text>
		</g>
		<g id="g300">
			<text id="text302" transform="matrix(1 0 0 1 337.8054 131.6708)" font-family="'DFHeiStd-W7-B5pc-H'" font-size="14">淡水區</text>
		</g>
	</g>
	<g id="g304">
		<g id="g306">
			
				<text id="text308" transform="matrix(1 0 0 1 385.6526 93.6239)" fill="none" stroke="#FFFFFF" stroke-width="2" stroke-linecap="round" stroke-linejoin="round" font-family="'DFHeiStd-W7-B5pc-H'" font-size="14">三芝區</text>
		</g>
		<g id="g310">
			<text id="text312" transform="matrix(1 0 0 1 385.6526 93.6239)" font-family="'DFHeiStd-W7-B5pc-H'" font-size="14">三芝區</text>
		</g>
	</g>
	<g id="g314">
		<g id="g316">
			
				<text id="text318" transform="matrix(1 0 0 1 431.5242 58.8788)" fill="none" stroke="#FFFFFF" stroke-width="2" stroke-linecap="round" stroke-linejoin="round" font-family="'DFHeiStd-W7-B5pc-H'" font-size="14">石門區</text>
		</g>
		<g id="g320">
			<text id="text322" transform="matrix(1 0 0 1 431.5242 58.8788)" font-family="'DFHeiStd-W7-B5pc-H'" font-size="14">石門區</text>
		</g>
	</g>
	<g id="g324">
		<g id="g326">
			
				<text id="text328" transform="matrix(1 0 0 1 452.6843 99.9891)" fill="none" stroke="#FFFFFF" stroke-width="2" stroke-linecap="round" stroke-linejoin="round" font-family="'DFHeiStd-W7-B5pc-H'" font-size="14">金山區</text>
		</g>
		<g id="g330">
			<text id="text332" transform="matrix(1 0 0 1 452.6843 99.9891)" font-family="'DFHeiStd-W7-B5pc-H'" font-size="14">金山區</text>
		</g>
	</g>
	<g id="g334">
		<g id="g336">
			
				<text id="text338" transform="matrix(1 0 0 1 483.1951 137.0106)" fill="none" stroke="#FFFFFF" stroke-width="2" stroke-linecap="round" stroke-linejoin="round" font-family="'DFHeiStd-W7-B5pc-H'" font-size="14">萬里區</text>
		</g>
		<g id="g340">
			<text id="text342" transform="matrix(1 0 0 1 483.1951 137.0106)" font-family="'DFHeiStd-W7-B5pc-H'" font-size="14">萬里區</text>
		</g>
	</g>
	<g id="g344">
		
			<text id="text346" transform="matrix(1 0 0 1 325.2454 328.4188)" fill="none" stroke="#FFFFFF" stroke-width="2" stroke-linecap="round" stroke-linejoin="round" font-family="'DFHeiStd-W7-B5pc-H'" font-size="12">土城區</text>
		<text id="text348" transform="matrix(1 0 0 1 325.2454 328.4188)" font-family="'DFHeiStd-W7-B5pc-H'" font-size="12">土城區</text>
	</g>
	<g id="g350">
		
			<text id="text352" transform="matrix(1 0 0 1 287.4421 314.9999)" fill="none" stroke="#FFFFFF" stroke-width="2" stroke-linecap="round" stroke-linejoin="round" font-family="'DFHeiStd-W7-B5pc-H'" font-size="12">樹林區</text>
		<text id="text354" transform="matrix(1 0 0 1 287.4421 314.9999)" font-family="'DFHeiStd-W7-B5pc-H'" font-size="12">樹林區</text>
	</g>
	<g id="g356">
		
			<text id="text358" transform="matrix(1 0 0 1 244.1086 332.3573)" fill="none" stroke="#FFFFFF" stroke-width="2" stroke-linecap="round" stroke-linejoin="round" font-family="'DFHeiStd-W7-B5pc-H'" font-size="12">鶯歌區</text>
		<text id="text360" transform="matrix(1 0 0 1 244.1086 332.3573)" font-family="'DFHeiStd-W7-B5pc-H'" font-size="12">鶯歌區</text>
	</g>
</g>
</svg>
